<?xml version="1.0" encoding="UTF-8" standalone="no"?>
<!-- Created with Inkscape (http://www.inkscape.org/) -->

<svg
   xmlns:dc="http://purl.org/dc/elements/1.1/"
   xmlns:cc="http://creativecommons.org/ns#"
   xmlns:rdf="http://www.w3.org/1999/02/22-rdf-syntax-ns#"
   xmlns:svg="http://www.w3.org/2000/svg"
   xmlns="http://www.w3.org/2000/svg"
   xmlns:sodipodi="http://sodipodi.sourceforge.net/DTD/sodipodi-0.dtd"
   xmlns:inkscape="http://www.inkscape.org/namespaces/inkscape"
   version="1.1"
   id="svg2"
   width="300mm"
   height="300mm"
   viewBox="0 0 1133.8583 1133.8583"
   sodipodi:docname="LD_Logo01_Transparent.svg"
   inkscape:version="0.92.2 (5c3e80d, 2017-08-06)">
  <metadata
     id="metadata8">
    <rdf:RDF>
      <cc:Work
         rdf:about="">
        <dc:format>image/svg+xml</dc:format>
        <dc:type
           rdf:resource="http://purl.org/dc/dcmitype/StillImage" />
        <dc:title></dc:title>
      </cc:Work>
    </rdf:RDF>
  </metadata>
  <defs
     id="defs6">
    <inkscape:path-effect
       effect="bspline"
       id="path-effect68"
       is_visible="true"
       weight="33.333333"
       steps="2"
       helper_size="0"
       apply_no_weight="true"
       apply_with_weight="true"
       only_selected="false" />
    <inkscape:path-effect
       effect="bspline"
       id="path-effect64"
       is_visible="true"
       weight="33.333333"
       steps="2"
       helper_size="0"
       apply_no_weight="true"
       apply_with_weight="true"
       only_selected="false" />
    <inkscape:path-effect
       effect="bspline"
       id="path-effect60"
       is_visible="true"
       weight="33.333333"
       steps="2"
       helper_size="0"
       apply_no_weight="true"
       apply_with_weight="true"
       only_selected="false" />
    <inkscape:path-effect
       effect="bspline"
       id="path-effect34"
       is_visible="true"
       weight="33.333333"
       steps="2"
       helper_size="0"
       apply_no_weight="true"
       apply_with_weight="true"
       only_selected="false" />
    <inkscape:path-effect
       effect="bspline"
       id="path-effect30"
       is_visible="true"
       weight="33.333333"
       steps="2"
       helper_size="0"
       apply_no_weight="true"
       apply_with_weight="true"
       only_selected="false" />
    <inkscape:path-effect
       effect="bspline"
       id="path-effect34-0"
       is_visible="true"
       weight="33.333333"
       steps="2"
       helper_size="0"
       apply_no_weight="true"
       apply_with_weight="true"
       only_selected="false" />
    <inkscape:path-effect
       effect="bspline"
       id="path-effect68-8"
       is_visible="true"
       weight="33.333333"
       steps="2"
       helper_size="0"
       apply_no_weight="true"
       apply_with_weight="true"
       only_selected="false" />
    <inkscape:path-effect
       effect="bspline"
       id="path-effect68-85"
       is_visible="true"
       weight="33.333333"
       steps="2"
       helper_size="0"
       apply_no_weight="true"
       apply_with_weight="true"
       only_selected="false" />
    <inkscape:path-effect
       effect="bspline"
       id="path-effect68-8-1"
       is_visible="true"
       weight="33.333333"
       steps="2"
       helper_size="0"
       apply_no_weight="true"
       apply_with_weight="true"
       only_selected="false" />
  </defs>
  <sodipodi:namedview
     pagecolor="#ffffff"
     bordercolor="#666666"
     borderopacity="1"
     objecttolerance="10"
     gridtolerance="10"
     guidetolerance="10"
     inkscape:pageopacity="0"
     inkscape:pageshadow="2"
     inkscape:window-width="1920"
     inkscape:window-height="1001"
     id="namedview4"
     showgrid="false"
     inkscape:zoom="0.3170932"
     inkscape:cx="635.10075"
     inkscape:cy="793.09401"
     inkscape:window-x="-9"
     inkscape:window-y="-9"
     inkscape:window-maximized="1"
     inkscape:current-layer="svg2"
     showguides="false"
     units="mm"
     width="300mm" />
  <path
     style="fill:#083b66;fill-opacity:1;stroke-width:0.85254067"
     d=""
     id="path262"
     inkscape:connector-curvature="0" />
  <path
     style="fill:#083b66;fill-opacity:1;stroke-width:0.85254067"
     d="m 376.82636,812.6828 c -6.77914,-0.82305 -8.17634,-1.31695 -9.51795,-3.36445 -1.17568,-1.79433 -1.57382,-6.78346 -2.43165,-30.46951 l -1.02573,-28.32382 -3.17235,-7.64184 c -8.20776,-19.77163 -9.55763,-27.44332 -8.13443,-46.23097 1.46646,-19.35963 4.48848,-30.54118 17.37474,-64.28766 2.62678,-6.8791 4.77606,-13.69442 4.77606,-15.14514 0,-3.28207 -2.97331,-5.30283 -11.50933,-7.82206 -17.71848,-5.22928 -22.43277,-7.75159 -25.36176,-13.56949 -3.03207,-6.02263 -1.27169,-18.44882 3.12966,-22.09157 0.81563,-0.67505 3.42713,-1.47678 5.8033,-1.78162 6.30436,-0.80878 33.29828,0.50216 35.71365,1.73441 1.11574,0.56923 3.25592,2.33573 4.75595,3.92554 1.50004,1.58981 3.25057,2.89057 3.89009,2.89057 1.90246,0 5.10761,-4.09073 11.68947,-14.91946 20.32298,-33.43605 36.87239,-48.07123 61.68148,-54.54719 16.90129,-4.41175 31.64398,-5.43305 87.96216,-6.09355 64.45208,-0.7559 99.11777,0.94786 117.65061,5.78232 8.87382,2.3148 20.81287,7.96298 27.42418,12.97391 10.0518,7.61866 21.41057,21.06604 38.60081,45.69884 3.02201,4.33042 6.42314,8.48186 7.55799,9.22545 2.30595,1.51092 3.10551,1.1983 8.99807,-3.51802 4.49667,-3.59911 11.36741,-4.51073 25.9126,-3.43814 18.47527,1.3624 21.67475,3.68508 21.73034,15.77513 0.0184,3.93026 -0.25348,8.04805 -0.60344,9.15066 -0.82495,2.59927 -13.13002,8.50916 -24.33175,11.68612 -4.45453,1.26336 -9.12224,2.81313 -10.37263,3.44393 -4.03942,2.03775 -3.83313,4.61778 1.73875,21.74515 5.68191,17.4657 9.59212,37.92762 11.22091,58.71768 1.04608,13.35308 0.55725,21.18427 -2.20853,35.38043 -2.66593,13.68407 -3.5935,23.85075 -4.62796,50.72618 -1.2588,32.70393 -1.21835,32.52134 -7.5004,33.855 -5.60316,1.18951 -36.15617,0.82248 -38.40906,-0.46141 -3.55144,-2.02392 -4.4322,-6.04093 -5.64688,-25.75442 -0.63074,-10.23765 -1.39904,-19.02193 -1.70725,-19.52061 -0.85172,-1.37806 -3.28673,-1.17338 -29.03906,2.44083 -43.05031,6.04191 -50.20143,6.56605 -106.71031,7.82132 -63.41274,1.40862 -91.2456,0.26423 -159.80792,-6.57077 -8.16219,-0.81368 -8.16746,-0.8013 -9.0295,21.18913 -0.55183,14.07628 -0.95868,17.934 -2.00156,18.97683 -0.71988,0.7199 -3.58905,1.68229 -6.37587,2.13865 -4.77262,0.78155 -22.48082,0.95407 -28.0855,0.27362 z m 226.65953,-52.63041 c 3.2183,-0.72472 7.44376,-2.2508 9.38988,-3.39131 7.91529,-4.63869 17.40058,-17.50517 15.34512,-20.81518 -2.57181,-4.14151 -10.4124,-5.22041 -42.5221,-5.85121 -25.84638,-0.50775 -61.80894,0.61466 -74.33705,2.32009 -8.08183,1.10018 -12.51962,3.05805 -12.89329,5.68828 -0.39661,2.79155 3.81096,9.94175 8.34701,14.18473 8.71561,8.15244 20.95371,9.89961 66.09525,9.43612 18.43634,-0.18929 26.21171,-0.58894 30.57518,-1.57152 z M 444.60333,717.83627 c 8.80379,-1.15137 12.64846,-2.50792 16.19906,-5.71566 4.21911,-3.81171 5.43838,-7.52495 4.90742,-14.94558 -0.98949,-13.82914 -12.90552,-27.57652 -31.02394,-35.79177 -8.87941,-4.02615 -15.59784,-5.23684 -26.51466,-4.77812 -8.38798,0.35245 -10.18744,0.70756 -14.49319,2.86005 -8.47254,4.23558 -10.85343,9.81473 -10.87186,25.47623 -0.0107,9.18402 0.20393,10.66652 2.09897,14.4932 5.52662,11.1596 15.85758,16.52814 35.09762,18.23859 10.93296,0.97195 18.05449,1.01916 24.60058,0.16306 z m 278.2811,-5.11036 c 8.10079,-2.14162 12.76255,-4.73927 17.07846,-9.51647 5.64367,-6.24684 6.86814,-10.04483 6.85178,-21.25191 -0.0199,-13.70423 -2.31131,-20.06999 -8.79706,-24.44073 -6.65443,-4.48443 -24.82568,-5.30255 -36.37325,-1.63764 -14.48194,4.5962 -29.5382,16.37828 -34.95968,27.35718 -2.23331,4.5227 -2.52737,6.01143 -2.539,12.85173 -0.0123,7.22734 0.1491,7.94936 2.45206,10.97121 5.0092,6.573 11.8944,8.17601 33.34152,7.76256 12.99094,-0.25042 17.53424,-0.66544 22.94517,-2.09593 z m 21.21123,-92.6281 c 0.85295,-0.32732 4.46876,-2.07424 4.46876,-3.36909 0,-3.20209 -21.58582,-38.63957 -31.79368,-54.30345 -6.28566,-9.64516 -20.07723,-24.88835 -25.24539,-29.00461 -5.53716,-4.41015 -19.49687,-11.12481 -27.81902,-13.38102 -12.10504,-3.28179 -19.26397,-3.63579 -82.30456,-4.06986 -63.91609,-0.44011 -93.42333,0.31521 -107.37761,2.74863 -23.6906,4.13129 -41.22706,21.88815 -60.58539,53.89342 -5.89111,9.7397 -20.17502,31.47006 -22.69392,38.86304 0,0 -1.67849,3.88855 -1.22935,5.81973 0.16852,0.72472 1.37777,1.75624 1.37777,1.75624 2.07389,1.70886 2.74072,1.74101 24.72368,1.19185 12.42581,-0.3104 36.97897,-1.20694 54.56261,-1.99229 47.76015,-2.13317 164.92171,-2.08664 195.65808,0.0776 38.8448,2.73529 73.68842,3.52324 78.25802,1.76972 z"
     id="path278"
     inkscape:connector-curvature="0"
     sodipodi:nodetypes="scccsccscccccssscsccsccscccccccscsccssccccsccsssccscccscscccscscccccccsscscccssccscssscc" />
  <g
     aria-label="LogDrive"
     style="font-style:normal;font-weight:normal;font-size:237.53329468px;line-height:1.25;font-family:sans-serif;letter-spacing:0px;word-spacing:0px;fill:#083b66;fill-opacity:1;stroke:none;stroke-width:5.93833256"
     id="text282"
     transform="matrix(0.92471488,0,0,0.92471488,-619.29938,-133.88732)">
    <path
       d="M 849.13532,1228.286 H 711.57941 q -3.24752,0 -6.03112,-1.1598 -2.78359,-1.1599 -4.87128,-3.1316 -1.97172,-2.0877 -3.13155,-4.8713 -1.15983,-2.7835 -1.15983,-6.0311 v -151.1259 h 30.1556 v 136.1641 h 122.59409 z"
       style="font-style:normal;font-variant:normal;font-weight:normal;font-stretch:normal;font-family:Audiowide;-inkscape-font-specification:Audiowide;fill:#083b66;fill-opacity:1;stroke-width:5.93833256"
       id="path34"
       inkscape:connector-curvature="0" />
    <path
       d="m 1004.3206,1185.9522 q 0,7.7709 -1.9717,14.0339 -1.9717,6.1471 -5.2192,10.9025 -3.24753,4.6393 -7.5389,8.0028 -4.29137,3.2475 -9.04668,5.3352 -4.63932,2.0877 -9.51061,3.1315 -4.7553,0.9279 -9.04668,0.9279 h -54.39605 q -6.26308,0 -13.686,-2.2037 -7.42292,-2.2036 -13.80198,-7.1909 -6.26309,-5.1033 -10.55446,-13.1061 -4.17539,-8.1188 -4.17539,-19.8331 v -40.826 q 0,-11.5983 4.17539,-19.6012 4.29137,-8.1188 10.55446,-13.1061 6.37906,-5.1032 13.80198,-7.3069 7.42292,-2.2037 13.686,-2.2037 h 54.39605 q 11.59831,0 19.71712,4.1754 8.11882,4.1754 13.10609,10.5545 4.98727,6.2631 7.19096,13.686 2.3196,7.4229 2.3196,13.802 z m -30.15555,-40.5941 q 0,-6.2631 -3.13154,-9.2786 -3.13154,-3.0156 -9.04668,-3.0156 h -54.16408 q -6.03112,0 -9.16267,3.1316 -3.13154,3.0155 -3.13154,8.9307 v 40.826 q 0,5.9151 3.13154,9.0467 3.13155,3.1315 9.16267,3.1315 h 54.16408 q 6.1471,0 9.16266,-3.1315 3.01556,-3.1316 3.01556,-9.0467 z"
       style="font-style:normal;font-variant:normal;font-weight:normal;font-stretch:normal;font-family:Audiowide;-inkscape-font-specification:Audiowide;fill:#083b66;fill-opacity:1;stroke-width:5.93833256"
       id="path36"
       inkscape:connector-curvature="0" />
    <path
       d="m 1166.233,1240.3482 q 0,7.7709 -1.9717,13.918 -1.9717,6.2631 -5.2193,10.9024 -3.2475,4.7553 -7.5389,8.0029 -4.2913,3.3635 -9.0466,5.4512 -4.6394,2.0877 -9.5107,3.0155 -4.7553,1.0439 -9.0466,1.0439 h -54.3961 v -30.1556 h 54.3961 q 6.1471,0 9.1626,-3.1316 3.0156,-3.1315 3.0156,-9.0467 v -95.222 q 0,-5.9152 -3.0156,-8.9307 -3.0155,-3.1316 -9.1626,-3.1316 h -54.3961 q -5.5672,0 -8.8147,3.4795 -3.2475,3.3635 -3.2475,8.5828 v 40.826 q 0,5.9151 3.1315,9.0467 3.1316,3.1315 9.1627,3.1315 h 54.1641 v 30.1556 h -54.3961 q -4.2914,0 -9.0467,-0.9279 -4.7553,-1.0438 -9.5106,-3.1315 -4.6393,-2.0877 -8.9307,-5.3352 -4.2913,-3.3635 -7.5389,-8.0028 -3.2475,-4.7554 -5.2192,-10.9025 -1.9717,-6.263 -1.9717,-14.0339 v -40.826 q 0,-4.2914 0.9279,-9.0467 1.0438,-4.7553 3.1315,-9.3946 2.0877,-4.7553 5.3352,-9.0467 3.3635,-4.2914 8.0028,-7.5389 4.7553,-3.2475 10.9025,-5.2193 6.1471,-1.9717 13.9179,-1.9717 h 54.3961 q 4.2913,0 9.0466,1.0439 4.8713,0.9278 9.5107,3.0155 4.7553,2.0877 9.0466,5.4512 4.2914,3.2476 7.5389,8.0029 3.2476,4.6393 5.2193,10.7864 1.9717,6.1471 1.9717,13.918 z"
       style="font-style:normal;font-variant:normal;font-weight:normal;font-stretch:normal;font-family:Audiowide;-inkscape-font-specification:Audiowide;fill:#083b66;fill-opacity:1;stroke-width:5.93833256"
       id="path38"
       inkscape:connector-curvature="0" />
    <path
       d="m 1363.4042,1158.6962 q 0,15.1938 -5.3352,27.9519 -5.2193,12.7581 -14.4979,22.0368 -9.2786,9.1626 -22.0368,14.3819 -12.7581,5.2192 -27.7199,5.2192 h -81.4201 q -3.2476,0 -6.0312,-1.1598 -2.7836,-1.1599 -4.8712,-3.1316 -1.9718,-2.0877 -3.1316,-4.8713 -1.1598,-2.7835 -1.1598,-6.0311 v -135.9321 q 0,-3.1316 1.1598,-5.9151 1.1598,-2.7836 3.1316,-4.8713 2.0876,-2.0877 4.8712,-3.2476 2.7836,-1.1598 6.0312,-1.1598 h 81.4201 q 14.9618,0 27.7199,5.2192 12.7582,5.2193 22.0368,14.4979 9.2786,9.1627 14.4979,22.0368 5.3352,12.7581 5.3352,27.8359 z m -30.1556,-27.1401 q 0,-8.8147 -2.8996,-16.1216 -2.7836,-7.3069 -8.0028,-12.4102 -5.2192,-5.2192 -12.5262,-8.0028 -7.1909,-2.8996 -16.0056,-2.8996 h -66.4583 v 106.0085 h 66.4583 q 8.8147,0 16.0056,-2.7836 7.307,-2.8996 12.5262,-8.0028 5.2192,-5.2192 8.0028,-12.4102 2.8996,-7.3069 2.8996,-16.2376 z"
       style="font-style:normal;font-variant:normal;font-weight:normal;font-stretch:normal;font-family:Audiowide;-inkscape-font-specification:Audiowide;fill:#083b66;fill-opacity:1;stroke-width:5.93833256"
       id="path40"
       inkscape:connector-curvature="0" />
    <path
       d="m 1499.1043,1133.0639 h -67.85 q -6.1472,0 -9.2787,3.1316 -3.1315,3.0155 -3.1315,8.9307 v 83.1598 h -30.1556 v -83.1598 q 0,-7.7709 1.9717,-13.918 1.9717,-6.1471 5.2192,-10.7864 3.3635,-4.7553 7.6549,-8.0029 4.2914,-3.3635 8.9307,-5.4512 4.7553,-2.0877 9.5106,-3.0155 4.8713,-1.0439 9.0467,-1.0439 h 68.082 z"
       style="font-style:normal;font-variant:normal;font-weight:normal;font-stretch:normal;font-family:Audiowide;-inkscape-font-specification:Audiowide;fill:#083b66;fill-opacity:1;stroke-width:5.93833256"
       id="path42"
       inkscape:connector-curvature="0" />
    <path
       d="m 1549.441,1077.1601 h -30.1556 v -27.256 h 30.1556 z m 0,151.1259 h -30.1556 v -125.3777 h 30.1556 z"
       style="font-style:normal;font-variant:normal;font-weight:normal;font-stretch:normal;font-family:Audiowide;-inkscape-font-specification:Audiowide;fill:#083b66;fill-opacity:1;stroke-width:5.93833256"
       id="path44"
       inkscape:connector-curvature="0" />
    <path
       d="m 1727.8229,1102.9083 q -5.1032,15.8897 -11.9462,31.3155 -6.843,15.4257 -15.7737,29.4596 -8.8147,13.918 -19.8331,25.8643 -10.9024,11.8302 -24.2405,20.529 -13.222,8.5827 -28.8797,13.57 -15.5418,4.8713 -33.7511,4.8713 -3.1316,0 -5.9152,-1.1599 -2.7835,-1.1598 -4.8712,-3.1315 -2.0877,-2.0877 -3.2476,-4.7553 -1.1598,-2.7836 -1.1598,-5.9151 v -110.6479 h 30.1556 v 94.2943 q 11.0184,0 21.1089,-4.7554 10.2065,-4.7553 19.2532,-12.5261 9.0467,-7.8869 16.7016,-17.8614 7.7708,-9.9746 13.8019,-20.413 6.0312,-10.5545 10.2066,-20.645 4.2913,-10.0905 6.379,-18.0934 z"
       style="font-style:normal;font-variant:normal;font-weight:normal;font-stretch:normal;font-family:Audiowide;-inkscape-font-specification:Audiowide;fill:#083b66;fill-opacity:1;stroke-width:5.93833256"
       id="path46"
       inkscape:connector-curvature="0" />
    <path
       d="m 1873.6137,1144.4303 q 0,6.263 -2.2037,13.57 -2.2037,7.1909 -7.191,13.454 -4.8713,6.1471 -12.8741,10.3225 -7.8868,4.1754 -19.2532,4.1754 h -54.396 v -28.6478 h 54.396 q 6.1471,0 9.5106,-3.7115 3.3635,-3.8274 3.3635,-9.3946 0,-5.9151 -3.8274,-9.2786 -3.7114,-3.3636 -9.0467,-3.3636 h -54.396 q -6.1471,0 -9.5106,3.8275 -3.3635,3.7114 -3.3635,9.2786 v 42.1019 q 0,6.0311 3.7114,9.3946 3.8275,3.3635 9.3946,3.3635 h 54.1641 v 28.7638 h -54.396 q -6.2631,0 -13.57,-2.2037 -7.191,-2.2036 -13.4541,-7.0749 -6.1471,-4.9873 -10.3225,-12.8742 -4.1754,-8.0028 -4.1754,-19.3691 v -42.3338 q 0,-6.2631 2.2037,-13.4541 2.2037,-7.3069 7.075,-13.454 4.9873,-6.2631 12.8741,-10.4385 8.0028,-4.1754 19.3692,-4.1754 h 54.396 q 6.2631,0 13.4541,2.2037 7.3069,2.2037 13.454,7.191 6.2631,4.8712 10.4385,12.8741 4.1754,7.8868 4.1754,19.2532 z"
       style="font-style:normal;font-variant:normal;font-weight:normal;font-stretch:normal;font-family:Audiowide;-inkscape-font-specification:Audiowide;fill:#083b66;fill-opacity:1;stroke-width:5.93833256"
       id="path48"
       inkscape:connector-curvature="0" />
  </g>
  <g
     id="g4010"
     transform="matrix(0.76462238,0,0,0.76462238,968.98552,-406.51021)" />
  <g
     id="g54"
     transform="matrix(2.3000521,0,0,1.3643636,64.003049,459.44934)" />
  <path
     style="fill:#74d14c;fill-opacity:1;stroke-width:1.70508134"
     d="m 557.18311,104.25074 c -149.62581,1.17938 -299.85286,28.59629 -438.21254,86.22648 -32.330462,14.52673 -65.541361,28.55475 -94.412222,49.3408 -9.65644,7.81835 -10.467382,22.71472 -2.051425,31.8404 20.609151,23.89845 58.061288,27.1143 85.830187,14.89947 44.81472,-22.00386 89.36238,-44.79053 137.1614,-59.82796 148.73715,-50.93448 309.05201,-61.0725 464.56504,-42.88819 102.08068,13.69603 203.28651,41.00695 294.88315,88.92838 14.2364,5.88755 27.9378,15.70786 42.3107,19.27933 18.0888,3.16679 41.1117,3.27051 58.1626,-9.11153 13.744,-6.56193 25.0169,-24.39247 15.349,-38.68736 -14.1912,-15.56804 -35.1367,-22.74331 -53.0947,-33.02344 -119.71483,-58.73563 -251.50816,-90.86149 -384.02983,-102.27201 -42.05232,-3.49135 -84.26658,-5.01329 -126.46136,-4.70437 z"
     id="path86"
     inkscape:connector-curvature="0"
     sodipodi:nodetypes="cccccccccccccc" />
  <path
     style="fill:#74d14c;fill-opacity:1;stroke-width:1.70508134"
     d="m 559.65414,228.80159 c -128.76217,2.10919 -259.50009,28.01492 -373.21631,90.22944 -12.79209,6.38686 -29.96014,17.65854 -25.95587,34.4613 7.05932,19.15104 29.05824,28.96621 48.24181,30.74473 18.95105,1.16539 38.61372,-1.0601 54.83568,-11.69503 75.839,-41.95122 162.39902,-63.07352 248.01272,-70.5052 67.91284,-3.28256 136.38722,-2.65568 203.09624,11.94495 60.11492,11.56891 117.84811,33.47122 171.60875,62.40592 27.85595,13.70759 65.30616,10.41033 88.0315,-11.48932 9.3302,-8.96745 9.16969,-24.41374 -0.31315,-33.21911 C 954.13981,314.81825 928.97076,305.69151 905.80898,294.3007 797.25512,246.95765 677.61787,227.73762 559.65414,228.80159 Z"
     id="path88"
     inkscape:connector-curvature="0" />
  <path
     style="fill:#74d14c;fill-opacity:1;stroke-width:1.70508134"
     d="m 563.46724,353.53229 c -84.5316,1.49165 -171.17196,18.43391 -244.17961,62.735 -10.81037,6.01388 -20.93841,18.72662 -14.22677,31.39413 13.14785,24.94751 45.33515,31.66465 71.17047,27.43116 24.43519,-4.12552 44.46792,-20.77037 67.76038,-28.29035 78.81291,-29.55742 167.87582,-29.66449 247.35847,-2.5022 23.54066,7.71648 50.54383,20.16906 71.51536,25.77526 15.22837,3.11753 31.02104,4.2603 55.81446,-4.44057 13.97629,-6.04895 23.98406,-23.23892 15.70205,-37.61171 C 821.37774,410.47105 798.79469,404.08699 780.15243,394.35432 712.1804,364.75656 637.29849,352.91059 563.46724,353.53229 Z"
     id="path90"
     inkscape:connector-curvature="0"
     sodipodi:nodetypes="ccccccccccc" />
</svg>
